# xmcd
# Copyright (C) 1995-1998 Ti Kan
#
# Track frame offsets:
#       150
#       14292
#       32502
#       49458
#       64071
#       80199
#       97366
#       106812
#
# Disc length: 1752 seconds
#
# Revision: 0
# Processed by: cddbd v1.5.2PL0 Copyright (c) Steve Scherf et al.
# Submitted via: CD-Transfer v1.0
#
DISCID=6a06d608
DTITLE=Voodoocake - Fetish
DYEAR=04
DGENRE=
TTITLE0=Domina
TTITLE1=Smile
TTITLE2=Banana Boy
TTITLE3=Hellmex
TTITLE4=Après Ski
TTITLE5=J.q.x.z. Are Missing
TTITLE6=The Saucier Of Paris
TTITLE7=Hypnosis...
EXTD=
EXTT0=
EXTT1=
EXTT2=
EXTT3=
EXTT4=
EXTT5=
EXTT6=
EXTT7=
PLAYORDER=
